HIERARCHY
ROOT Pelvis
{
	OFFSET 0.000000 0.000000 0.000000
	CHANNELS 6 Xposition Yposition Zposition Xrotation Yrotation Zrotation
	JOINT LeftUpLeg_virtual
	{
		OFFSET 0.000000 0.000000 0.000000
		CHANNELS 3 Xrotation Yrotation Zrotation
		JOINT LeftUpLeg
		{
			OFFSET 18.735201 -5.666702 -4.541200
			CHANNELS 3 Xrotation Yrotation Zrotation
			JOINT LeftLeg
			{
				OFFSET -0.021200 -31.938179 0.493100
				CHANNELS 3 Xrotation Yrotation Zrotation
				JOINT LeftFoot
				{
					OFFSET 0.021200 -31.938179 -4.336299
					CHANNELS 3 Xrotation Yrotation Zrotation
					JOINT LeftToeBase
					{
						OFFSET 0.943001 -26.722000 15.023500
						CHANNELS 3 Xrotation Yrotation Zrotation
						End Site
						{
							OFFSET 0 0 0
						}
					}
				}
			}
		}
	}
	JOINT RightUpLeg_virtual
	{
		OFFSET 0.000000 0.000000 0.000000
		CHANNELS 3 Xrotation Yrotation Zrotation
		JOINT RightUpLeg
		{
			OFFSET -18.735201 -5.666702 -4.541200
			CHANNELS 3 Xrotation Yrotation Zrotation
			JOINT RightLeg
			{
				OFFSET 0.018946 -31.938133 0.493100
				CHANNELS 3 Xrotation Yrotation Zrotation
				JOINT RightFoot
				{
					OFFSET -0.018946 -31.938126 -4.336299
					CHANNELS 3 Xrotation Yrotation Zrotation
					JOINT RightToeBase
					{
						OFFSET -0.943001 -26.722004 15.023500
						CHANNELS 3 Xrotation Yrotation Zrotation
						End Site
						{
							OFFSET 0 0 0
						}
					}
				}
			}
		}
	}
	JOINT Hips_virtual
	{
		OFFSET 0.000000 0.000000 0.000000
		CHANNELS 3 Xrotation Yrotation Zrotation
		JOINT Hips
		{
			OFFSET -0.000000 -0.000000 -0.000000
			CHANNELS 3 Xrotation Yrotation Zrotation
			JOINT Spine
			{
				OFFSET 0.000000 10.199997 -0.299500
				CHANNELS 3 Xrotation Yrotation Zrotation
				JOINT Spine1
				{
					OFFSET 0.000000 11.900002 -1.516600
					CHANNELS 3 Xrotation Yrotation Zrotation
					JOINT Spine2
					{
						OFFSET 0.000000 13.600006 -2.842500
						CHANNELS 3 Xrotation Yrotation Zrotation
						JOINT Neck_virtual
						{
							OFFSET 0.000000 0.000000 0.000000
							CHANNELS 3 Xrotation Yrotation Zrotation
							JOINT Neck
							{
								OFFSET 0.000000 9.624100 -2.890100
								CHANNELS 3 Xrotation Yrotation Zrotation
								JOINT Head
								{
									OFFSET 0.000000 14.068802 -1.351900
									CHANNELS 3 Xrotation Yrotation Zrotation
									End Site
									{
										OFFSET 0 0 0
									}
								}
							}
						}
						JOINT LeftShoulder_virtual
						{
							OFFSET 0.000000 0.000000 0.000000
							CHANNELS 3 Xrotation Yrotation Zrotation
							JOINT LeftShoulder
							{
								OFFSET 15.263000 10.923401 -0.547700
								CHANNELS 3 Xrotation Yrotation Zrotation
								JOINT LeftArm
								{
									OFFSET 25.438599 -2.830597 -13.032500
									CHANNELS 3 Xrotation Yrotation Zrotation
									JOINT LeftForeArm
									{
										OFFSET 29.960503 0.000000 0.000000
										CHANNELS 3 Xrotation Yrotation Zrotation
										JOINT LeftHand
										{
											OFFSET 27.849251 0.000000 0.000000
											CHANNELS 3 Xrotation Yrotation Zrotation
											End Site
											{
												OFFSET 0 0 0
											}
										}
									}
								}
							}
						}
						JOINT RightShoulder_virtual
						{
							OFFSET 0.000000 0.000000 0.000000
							CHANNELS 3 Xrotation Yrotation Zrotation
							JOINT RightShoulder
							{
								OFFSET -15.263000 10.923401 -0.547700
								CHANNELS 3 Xrotation Yrotation Zrotation
								JOINT RightArm
								{
									OFFSET -25.438599 -2.830597 -13.032500
									CHANNELS 3 Xrotation Yrotation Zrotation
									JOINT RightForeArm
									{
										OFFSET -29.960503 0.000000 0.000000
										CHANNELS 3 Xrotation Yrotation Zrotation
										JOINT RightHand
										{
											OFFSET -27.849251 0.000000 0.000000
											CHANNELS 3 Xrotation Yrotation Zrotation
											End Site
											{
												OFFSET 0 0 0
											}
										}
									}
								}
							}
						}
					}
				}
			}
		}
	}
}
MOTION
Frames: 11
Frame Time: 0.03333333
-23.244019 92.096069 -10.534840 0.000000 0.000000 0.000000 -167.937386 -48.206857 -163.152387 -112.736698 -22.941507 4.368177 81.667657 -6.527009 -32.346649 55.535459 -16.681735 -27.369275 0.000000 0.000000 0.000000 -167.937386 -48.206857 -163.152387 -26.112496 31.887008 1.891959 39.851753 18.702371 -5.752235 -11.128645 9.725028 10.744205 0.000000 0.000000 0.000000 -167.937386 -48.206857 -163.152387 0.000000 0.000003 0.000000 17.494968 2.339331 -1.270221 8.584650 -0.768868 -1.067720 0.000000 0.000000 0.000000 8.613858 -0.684831 -1.055483 1.315575 8.396244 0.899060 0.000000 0.000000 0.000000 8.613858 -0.684831 -1.055483 -2.314307 -19.181500 9.645827 -51.327328 -47.749514 -40.680607 -98.688741 -30.890541 -92.924771 0.000000 0.000000 0.000000 8.613858 -0.684831 -1.055483 -5.432978 22.644165 5.004592 -52.631672 7.939698 23.713483 118.664182 44.432693 -113.869267 0.000000 0.000000 0.000000 
-24.339432 93.004662 -11.467415 0.000000 0.000000 0.000000 -167.321726 -44.247229 -162.108311 -116.055583 -22.969067 5.682644 79.541146 -7.463552 -32.980333 54.177231 -18.000238 -31.198313 0.000000 0.000000 0.000000 -167.321726 -44.247229 -162.108311 -23.322975 34.489371 1.513239 38.118855 19.658174 -5.584912 -10.830558 9.972248 10.488152 0.000000 0.000000 0.000000 -167.321726 -44.247229 -162.108311 0.000000 0.000001 0.000000 18.232072 2.528779 -1.812425 9.182358 -0.573633 -1.355683 0.000000 0.000000 0.000000 9.209431 -0.487417 -1.347772 1.543244 8.549375 0.821217 0.000000 0.000000 0.000000 9.209431 -0.487417 -1.347772 -1.708637 -18.296960 14.299378 -63.045173 -44.076645 -47.688644 -98.832694 -33.423169 -92.650143 0.000000 0.000000 0.000000 9.209431 -0.487417 -1.347772 -3.961800 23.402316 0.011317 -60.996724 6.507638 22.843730 122.036192 45.207045 -117.083294 0.000000 0.000000 0.000000 
-25.595623 93.756805 -12.365913 0.000000 0.000000 0.000000 -166.828791 -41.153075 -160.974376 -118.460929 -22.852003 6.431737 77.978426 -8.218645 -33.428558 53.287630 -19.311323 -34.978167 0.000000 0.000000 0.000000 -166.828791 -41.153075 -160.974376 -20.556311 36.746759 0.709499 37.513089 20.291823 -5.767349 -11.359072 10.018229 10.213760 0.000000 0.000000 0.000000 -166.828791 -41.153075 -160.974376 0.000000 -0.000003 0.000000 18.863352 2.719944 -2.281786 9.708552 -0.395324 -1.638886 0.000000 0.000000 0.000000 9.733534 -0.305671 -1.637465 1.758980 8.669031 0.747291 0.000000 0.000000 0.000000 9.733534 -0.305671 -1.637465 -1.028367 -17.270454 19.673107 -72.249468 -40.023669 -52.614081 -98.694669 -35.618542 -92.434009 0.000000 0.000000 0.000000 9.733534 -0.305671 -1.637465 -2.525919 24.010068 -4.580759 -68.052262 4.123792 20.350859 124.815369 45.407822 -120.114600 0.000000 0.000000 0.000000 
-26.777748 94.278145 -13.192650 0.000000 0.000000 0.000000 -166.526706 -39.048089 -159.888827 -119.600560 -22.547240 6.623816 75.998026 -9.085818 -33.400489 52.270550 -20.930529 -39.977370 0.000000 0.000000 0.000000 -166.526706 -39.048089 -159.888827 -18.288573 38.574730 -0.240941 37.910084 20.582017 -5.994746 -12.414508 9.901615 9.792673 0.000000 0.000000 0.000000 -166.526706 -39.048089 -159.888827 -0.000001 0.000000 0.000000 19.362476 2.924340 -2.633648 10.126823 -0.273159 -1.885045 0.000000 0.000000 0.000000 10.150080 -0.179296 -1.891160 1.956859 8.759677 0.675987 0.000000 0.000000 0.000000 10.150080 -0.179296 -1.891160 -0.494136 -16.339079 24.689863 -78.602152 -36.343320 -55.543546 -98.313900 -37.504582 -92.293990 0.000000 0.000000 0.000000 10.150080 -0.179296 -1.891160 -1.304847 24.365387 -8.345082 -73.690467 1.532232 16.866814 127.395035 45.463208 -123.298302 0.000000 0.000000 0.000000 
-27.613205 94.576073 -13.566074 0.000000 0.000000 0.000000 -166.320229 -37.940150 -158.909924 -120.109396 -22.482561 6.814838 75.274402 -9.145005 -33.316614 51.911955 -21.867428 -42.638118 0.000000 0.000000 0.000000 -166.320229 -37.940150 -158.909924 -16.600148 39.977336 -1.407730 38.483594 20.619631 -6.071248 -13.437820 9.653425 9.600076 0.000000 0.000000 0.000000 -166.320229 -37.940150 -158.909924 0.000000 0.000000 0.000000 19.711383 3.006120 -2.871036 10.409514 -0.230713 -2.077226 0.000000 0.000000 0.000000 10.431955 -0.132469 -2.090154 2.129522 8.825717 0.606037 0.000000 0.000000 0.000000 10.431955 -0.132469 -2.090154 -0.096168 -15.603043 28.986356 -83.036857 -33.483640 -57.132326 -97.890121 -39.132117 -92.448427 0.000000 0.000000 0.000000 10.431955 -0.132469 -2.090154 -0.405615 24.498630 -11.080967 -78.007058 -1.047416 12.865518 129.695061 45.483650 -126.366491 0.000000 0.000000 0.000000 
-28.204952 94.657875 -13.489231 0.000000 0.000000 0.000000 -166.280942 -37.635063 -158.197877 -120.150759 -22.793166 7.106882 75.271458 -9.025113 -33.169892 51.796944 -22.316830 -43.800647 0.000000 0.000000 0.000000 -166.280942 -37.635063 -158.197877 -15.584113 40.888620 -2.670807 39.091293 20.569791 -5.996599 -14.390257 9.387386 9.634783 0.000000 0.000000 0.000000 -166.280942 -37.635063 -158.197877 -0.000000 0.000004 0.000001 19.905775 2.982604 -3.001870 10.543661 -0.272694 -2.213489 0.000000 0.000000 0.000000 10.566391 -0.169956 -2.230720 2.271249 8.870256 0.534976 0.000000 0.000000 0.000000 10.566391 -0.169956 -2.230720 0.205211 -15.085673 32.388146 -85.907005 -31.268859 -57.740930 -98.019649 -38.408575 -93.790839 0.000000 0.000000 0.000000 10.566391 -0.169956 -2.230720 0.164659 24.451432 -12.822166 -81.242191 -3.531713 8.913785 131.687222 45.535099 -129.026071 0.000000 0.000000 0.000000 
-28.650322 94.542061 -13.157970 0.000000 0.000000 0.000000 -166.390949 -37.933508 -157.877815 -119.490389 -23.373122 7.514483 74.939401 -9.184904 -33.356994 52.562783 -22.658275 -43.807693 0.000000 0.000000 0.000000 -166.390949 -37.933508 -157.877815 -15.292452 41.207528 -3.697754 39.770320 20.516454 -5.833178 -15.273473 9.214145 9.729256 0.000000 0.000000 0.000000 -166.390949 -37.933508 -157.877815 0.000001 -0.000002 0.000000 19.954200 2.924797 -3.045011 10.532334 -0.394155 -2.301607 0.000000 0.000000 0.000000 10.556600 -0.287308 -2.319767 2.377723 8.897088 0.460229 0.000000 0.000000 0.000000 10.556600 -0.287308 -2.319767 0.453865 -14.765728 34.917191 -87.817750 -29.781244 -57.864960 -97.916267 -40.360722 -94.680048 0.000000 0.000000 0.000000 10.556600 -0.287308 -2.319767 0.444086 24.251201 -13.692740 -83.488831 -6.047013 5.429268 133.413320 45.765471 -131.105358 0.000000 0.000000 0.000000 
-28.952389 94.192932 -12.581196 0.000000 0.000000 0.000000 -167.152911 -38.774639 -157.958179 -118.477035 -23.966463 7.869828 74.976277 -8.834372 -33.037857 54.243815 -23.222274 -43.558012 0.000000 0.000000 0.000000 -167.152911 -38.774639 -157.958179 -16.134415 41.491087 -4.612664 40.902578 20.315445 -5.652588 -16.305137 9.030587 10.026137 0.000000 0.000000 0.000000 -167.152911 -38.774639 -157.958179 0.000000 0.000001 0.000000 19.874864 2.837144 -3.021853 10.391989 -0.585654 -2.353159 0.000000 0.000000 0.000000 10.419206 -0.475027 -2.369212 2.446466 8.911136 0.379513 0.000000 0.000000 0.000000 10.419206 -0.475027 -2.369212 0.689523 -14.603112 36.703292 -88.853344 -28.619176 -57.551283 -98.287201 -42.078965 -96.280382 0.000000 0.000000 0.000000 10.419206 -0.475027 -2.369212 0.494790 23.931368 -13.845178 -85.594831 -7.781221 2.455936 135.359924 45.845070 -133.223058 0.000000 0.000000 0.000000 
-29.047443 93.689041 -11.709816 0.000000 0.000000 0.000000 -168.406606 -40.103545 -158.360559 -117.589411 -24.868789 8.101198 74.940644 -9.238619 -32.880316 54.267516 -23.513078 -44.182455 0.000000 0.000000 0.000000 -168.406606 -40.103545 -158.360559 -17.726419 41.799655 -5.594427 42.086533 19.975629 -5.399684 -17.276243 8.800571 10.607712 0.000000 0.000000 0.000000 -168.406606 -40.103545 -158.360559 -0.000000 0.000001 0.000001 19.691567 2.705000 -2.971954 10.147644 -0.832198 -2.380204 0.000000 0.000000 0.000000 10.178969 -0.718218 -2.392067 2.477878 8.917734 0.292935 0.000000 0.000000 0.000000 10.178969 -0.718218 -2.392067 0.943292 -14.546780 37.946714 -90.004162 -28.214104 -57.471951 -98.502188 -43.265085 -97.549001 0.000000 0.000000 0.000000 10.178969 -0.718218 -2.392067 0.388538 23.525156 -13.462286 -87.561864 -8.953236 -0.037235 137.418502 45.775122 -135.275585 0.000000 0.000000 0.000000 
-28.857861 93.080681 -10.423908 0.000000 0.000000 0.000000 -169.944177 -41.797182 -159.042253 -117.021713 -26.549458 8.479927 75.979994 -9.927780 -33.131414 53.028544 -23.477112 -44.997522 0.000000 0.000000 0.000000 -169.944177 -41.797182 -159.042253 -19.717819 42.132217 -6.808863 42.898164 19.578539 -5.030354 -17.948451 8.522834 11.614369 0.000000 0.000000 0.000000 -169.944177 -41.797182 -159.042253 0.000000 0.000000 0.000001 19.429079 2.493989 -2.912833 9.828465 -1.109542 -2.392913 0.000000 0.000000 0.000000 9.864717 -0.993011 -2.399350 2.470704 8.921381 0.202428 0.000000 0.000000 0.000000 9.864717 -0.993011 -2.399350 1.186562 -14.544966 38.714468 -91.390404 -28.557161 -57.785463 -98.161614 -43.942579 -97.833847 0.000000 0.000000 0.000000 9.864717 -0.993011 -2.399350 0.218038 23.058191 -12.814278 -89.244228 -9.869674 -1.961963 139.391648 45.694710 -137.088016 0.000000 0.000000 0.000000 
-28.535183 92.372406 -8.950737 0.000000 0.000000 0.000000 -171.661164 -43.574370 -160.073406 -116.424754 -28.303961 8.833579 77.516725 -11.036439 -33.201348 52.219276 -23.761321 -46.265198 0.000000 0.000000 0.000000 -171.661164 -43.574370 -160.073406 -21.982061 42.374599 -8.028665 43.478054 19.238029 -4.555766 -18.414699 8.313692 12.786366 0.000000 0.000000 0.000000 -171.661164 -43.574370 -160.073406 0.000000 -0.000001 0.000000 19.109295 2.293548 -2.840146 9.463099 -1.384489 -2.398900 0.000000 0.000000 0.000000 9.504592 -1.266798 -2.399134 2.428339 8.924469 0.111019 0.000000 0.000000 0.000000 9.504592 -1.266798 -2.399134 1.365211 -14.540402 39.048823 -92.832318 -29.536074 -58.561646 -97.274509 -44.495824 -97.032693 0.000000 0.000000 0.000000 9.504592 -1.266798 -2.399134 0.037387 22.570461 -12.077844 -90.424424 -10.700893 -3.168592 141.041207 45.621214 -138.481512 0.000000 0.000000 0.000000 
